:SAMPLES-PER-SECOND 30
:FULLY-SPECIFIED
:DEGREES
242
root  -2.68869 40.962 1.21724 -174.502 -89.6146 175.41
RightUpLeg  3.12065 -0.542007 -0.731304
RightLeg  -2.166 -16.6898 0.272844
RightFoot  -0.891494 -0.233892 2.55702
RightToes  -3.10678e-008 1.75238e-005 3.56266e-009
Spine  -5.93722 0.348066 -4.27417
Spine1  5.97377 -0.515371 5.31567
HEad  -12.0246 1.7258 -2.55936
LeftShoulder1  2.38579 -3.63409 -27.3308
LeftArm  -49.8876 6.08192 -60.9655
LeftForeArm  126.4 -1.13124 17.8926
LeftHand  -0.81431 -3.4467 10.9382
RightShoulder  3.00575 5.09558 29.0288
RightArm  -23.6842 -18.9945 46.76
RightForeArm  66.6745 11.3367 6.62336
RightHand  -0.445055 6.38933 -4.70625
LeftUpLeg  2.71766 0.814829 1.46618
LeftLeg  -2.28994 14.7025 -1.15971
LeftFoot  -0.856836 0.219222 -2.36993
LeftToes  4.76857e-008 1.46588e-008 1.31384e-009
243
root  -2.62089 40.9654 1.21045 -3.79474 -88.9379 4.62178
RightUpLeg  3.47175 -0.700237 -0.723059
RightLeg  -2.62994 -18.0536 0.645185
RightFoot  -0.759035 -0.22864 2.47233
RightToes  -3.10678e-008 1.75238e-005 3.56266e-009
Spine  -5.49705 -0.310806 -4.96278
Spine1  5.59979 -1.41894 6.52239
HEad  -11.3342 2.06078 -3.23051
LeftShoulder1  2.30334 -3.45045 -27.0218
LeftArm  -45.4835 -5.86906 -61.51
LeftForeArm  124.193 -0.783507 17.4242
LeftHand  -0.852845 -2.98449 12.0349
RightShoulder  3.09309 5.30124 29.2061
RightArm  -23.0593 -24.9141 46.1082
RightForeArm  67.3593 11.9347 6.73495
RightHand  -0.319489 5.80447 -3.64914
LeftUpLeg  2.47746 0.697759 1.48163
LeftLeg  -2.21357 13.3554 -0.97249
LeftFoot  -0.611553 0.211394 -2.2609
LeftToes  4.76857e-008 1.46588e-008 1.31384e-009
244
root  -2.55864 40.9679 1.18086 0.237137 -86.8504 0.482422
RightUpLeg  3.87586 -0.95859 -0.720523
RightLeg  -2.98761 -19.9399 1.05765
RightFoot  -0.728936 -0.228054 2.4597
RightToes  -3.10678e-008 1.75238e-005 3.56266e-009
Spine  -4.78178 -1.12218 -5.79144
Spine1  4.87382 -2.40715 7.56472
HEad  -10.1942 2.35055 -3.49152
LeftShoulder1  2.23969 -3.31476 -26.7198
LeftArm  -39.3395 -17.0957 -61.6524
LeftForeArm  113.877 0.16151 14.4505
LeftHand  -0.898439 -2.43359 13.5277
RightShoulder  3.15916 5.43169 29.4386
RightArm  -23.0161 -30.8222 45.609
RightForeArm  69.8027 11.7869 6.9447
RightHand  -0.207094 6.12978 -2.38997
LeftUpLeg  2.03815 0.677452 1.56589
LeftLeg  -1.8149 11.2816 -0.82761
LeftFoot  -0.460409 0.204827 -2.16987
LeftToes  4.76857e-008 1.46588e-008 1.31384e-009
245
root  -2.50987 40.9628 1.14109 -1.91599 -85.0067 2.55276
RightUpLeg  4.02825 -1.15949 -0.807675
RightLeg  -2.86375 -21.6038 1.13737
RightFoot  -0.915557 -0.231123 2.50369
RightToes  -3.10678e-008 1.75238e-005 3.56266e-009
Spine  -4.39621 -1.75533 -6.68154
Spine1  4.69599 -3.13599 8.24738
HEad  -9.51427 1.68775 -3.17362
LeftShoulder1  2.00804 -2.85507 -25.4222
LeftArm  -31.6216 -27.302 -62.719
LeftForeArm  100.239 -0.167432 9.59699
LeftHand  -0.883391 -1.7854 14.4297
RightShoulder  3.09646 5.26383 29.4
RightArm  -23.2961 -36.3563 46.033
RightForeArm  71.7154 11.8015 7.0404
RightHand  0.0145139 5.5449 -0.178491
LeftUpLeg  1.71446 0.63714 1.51298
LeftLeg  -1.5946 9.46946 -0.843076
LeftFoot  -0.291494 0.190902 -1.96228
LeftToes  4.76857e-008 1.46588e-008 1.31384e-009
246
root  -2.46991 40.9637 1.09855 -2.42595 -83.6853 3.13861
RightUpLeg  3.98524 -1.21247 -0.807838
RightLeg  -2.818 -22.9289 1.16644
RightFoot  -1.0182 -0.229158 2.46975
RightToes  -3.10678e-008 1.75238e-005 3.56266e-009
Spine  -3.78488 -2.25164 -7.82808
Spine1  3.98419 -3.80021 9.45923
HEad  -8.90793 1.61694 -3.10028
LeftShoulder1  1.90016 -2.68871 -24.4689
LeftArm  -24.9451 -35.6195 -63.5743
LeftForeArm  90.6092 -5.86339 4.86531
LeftHand  -0.960928 -1.96013 15.3338
RightShoulder  3.17291 5.56146 29.0772
RightArm  -24.8663 -41.7085 46.7687
RightForeArm  73.3477 11.5613 6.95346
RightHand  0.118253 5.43921 0.948027
LeftUpLeg  1.30951 0.597269 1.5024
LeftLeg  -1.4083 8.13941 -0.852208
LeftFoot  -0.129535 0.190428 -1.9612
LeftToes  4.76857e-008 1.46588e-008 1.31384e-009
247
root  -2.45825 40.9594 1.07394 -1.80898 -82.6463 2.50552
RightUpLeg  4.11427 -1.27053 -0.733344
RightLeg  -2.87369 -23.9179 1.29004
RightFoot  -1.0972 -0.229602 2.47362
RightToes  -3.10678e-008 1.75238e-005 3.56266e-009
Spine  -3.08323 -2.67224 -8.68671
Spine1  3.30008 -4.39658 10.5904
HEad  -8.73996 2.24318 -3.16521
LeftShoulder1  1.70071 -2.21789 -23.4667
LeftArm  -18.7168 -41.9836 -63.943
LeftForeArm  83.4378 -14.3176 0.508353
LeftHand  -0.958161 -1.51057 16.2361
RightShoulder  3.22091 5.88554 28.3532
RightArm  -26.8349 -46.4134 48.0798
RightForeArm  74.7673 11.6219 6.63959
RightHand  0.208207 5.29463 1.93951
LeftUpLeg  1.07827 0.623431 1.59402
LeftLeg  -1.21171 7.04666 -0.825948
LeftFoot  -0.158146 0.195338 -2.04064
LeftToes  4.76857e-008 1.46588e-008 1.31384e-009
248
root  -2.44638 40.9543 1.07797 -1.81328 -82.3066 2.62276
RightUpLeg  3.93884 -1.34298 -0.787109
RightLeg  -2.7066 -24.191 1.27954
RightFoot  -1.20967 -0.235373 2.56083
RightToes  -3.10678e-008 1.75238e-005 3.56266e-009
Spine  -2.75852 -2.68391 -8.89116
Spine1  2.85632 -4.42991 10.8946
HEad  -9.1182 2.0253 -2.90389
LeftShoulder1  1.57507 -1.90978 -22.7971
LeftArm  -13.4892 -48.1594 -64.4724
LeftForeArm  77.2022 -21.9874 -1.64327
LeftHand  -0.949187 -1.01463 17.3096
RightShoulder  3.2002 5.92613 27.9758
RightArm  -29.3975 -49.7222 49.4238
RightForeArm  74.2334 11.6367 6.21783
RightHand  0.404103 5.67469 3.9087
LeftUpLeg  0.96674 0.537119 1.54121
LeftLeg  -1.33552 6.7702 -0.819956
LeftFoot  -0.159127 0.18937 -1.94727
LeftToes  4.76857e-008 1.46588e-008 1.31384e-009
249
root  -2.4417 40.9624 1.08655 -1.53093 -82.2911 2.37877
RightUpLeg  4.04154 -1.34738 -0.792789
RightLeg  -3.0398 -24.2109 1.47233
RightFoot  -1.10506 -0.233424 2.5292
RightToes  -3.10678e-008 1.75238e-005 3.56266e-009
Spine  -2.71454 -2.44757 -8.62979
Spine1  2.84647 -4.13579 10.5108
HEad  -9.26613 1.73492 -2.48987
LeftShoulder1  1.48828 -1.65236 -22.553
LeftArm  -10.1025 -54.3016 -65.9744
LeftForeArm  72.7436 -27.0536 -2.36515
LeftHand  -0.910171 -0.133813 19.1418
RightShoulder  3.23344 6.00117 28.0606
RightArm  -31.3367 -52.0512 50.6143
RightForeArm  73.3838 12.1085 5.72303
RightHand  0.371921 5.21496 3.7509
LeftUpLeg  0.724324 0.601887 1.59115
LeftLeg  -0.966804 6.64691 -0.797979
LeftFoot  -0.167338 0.196942 -2.06023
LeftToes  4.76857e-008 1.46588e-008 1.31384e-009
250
root  -2.43853 40.9626 1.08539 -1.09041 -82.1147 2.08629
RightUpLeg  3.96658 -1.34742 -0.77029
RightLeg  -3.20374 -24.3995 1.58898
RightFoot  -1.0444 -0.239555 2.62415
RightToes  -3.10678e-008 1.75238e-005 3.56266e-009
Spine  -2.87603 -2.23343 -8.43838
Spine1  2.9451 -3.87369 10.2812
HEad  -9.30556 0.853899 -2.17759
LeftShoulder1  1.47798 -1.61797 -22.5362
LeftArm  -8.36271 -59.6505 -68.1765
LeftForeArm  72.1301 -29.9097 -2.99128
LeftHand  -0.862666 0.227351 19.4038
RightShoulder  3.29552 6.22795 27.8981
RightArm  -33.7101 -52.7793 52.0592
RightForeArm  73.5475 11.6983 5.25945
RightHand  0.355154 4.64358 3.8112
LeftUpLeg  0.456884 0.634116 1.65227
LeftLeg  -0.809077 6.41158 -0.822176
LeftFoot  -0.20015 0.194669 -2.0154
LeftToes  4.76857e-008 1.46588e-008 1.31384e-009
251
root  -2.44126 40.9611 1.08509 -1.07494 -82.0355 2.14694
RightUpLeg  3.92792 -1.34548 -0.77149
RightLeg  -3.27329 -24.4728 1.61098
RightFoot  -1.00874 -0.238867 2.61478
RightToes  -3.10678e-008 1.75238e-005 3.56266e-009
Spine  -3.06379 -1.96144 -8.14749
Spine1  2.99649 -3.52938 9.94995
HEad  -9.17664 -0.107345 -1.7818
LeftShoulder1  1.34702 -1.24959 -21.9925
LeftArm  -5.73125 -63.0469 -71.1666
LeftForeArm  71.7646 -32.1199 -3.46688
LeftHand  -0.907515 -0.191442 18.8881
RightShoulder  3.38961 6.48909 27.9562
RightArm  -34.7157 -52.0275 52.5344
RightForeArm  74.0596 10.9739 4.92606
RightHand  0.400385 5.00473 4.17619
LeftUpLeg  0.385108 0.606228 1.64331
LeftLeg  -0.834812 6.35096 -0.823745
LeftFoot  -0.231529 0.196437 -2.02817
LeftToes  4.76857e-008 1.46588e-008 1.31384e-009
252
root  -2.43763 40.9553 1.08282 -1.4702 -81.8027 2.51825
RightUpLeg  3.87373 -1.43963 -0.836258
RightLeg  -3.06006 -24.6125 1.54898
RightFoot  -1.08619 -0.230121 2.48208
RightToes  -3.10678e-008 1.75238e-005 3.56266e-009
Spine  -3.08605 -1.6827 -7.64059
Spine1  2.84109 -3.12345 9.33602
HEad  -8.68319 -0.715395 -1.22742
LeftShoulder1  1.31576 -1.16481 -21.8265
LeftArm  -2.26477 -65.1632 -74.4235
LeftForeArm  70.1235 -32.3714 -3.57574
LeftHand  -0.805896 0.236104 18.1767
RightShoulder  3.52691 6.81805 28.2076
RightArm  -35.7096 -49.7417 52.5676
RightForeArm  76.6446 9.43667 4.08504
RightHand  0.32192 5.79936 2.99887
LeftUpLeg  0.476898 0.517159 1.56225
LeftLeg  -1.01241 6.20327 -0.817424
LeftFoot  -0.240248 0.19356 -1.963
LeftToes  4.76857e-008 1.46588e-008 1.31384e-009
253
root  -2.42471 40.9597 1.07979 -1.88283 -81.6434 2.89661
RightUpLeg  3.8503 -1.48038 -0.90309
RightLeg  -2.94375 -24.6908 1.511
RightFoot  -1.07169 -0.223864 2.38999
RightToes  -3.10678e-008 1.75238e-005 3.56266e-009
Spine  -3.42711 -1.20938 -6.95531
Spine1  3.02306 -2.47523 8.35024
HEad  -8.19876 -1.94133 -0.678747
LeftShoulder1  1.37954 -1.39811 -21.7788
LeftArm  1.26935 -65.626 -76.2505
LeftForeArm  69.0706 -32.3497 -3.60574
LeftHand  -0.830665 -0.00580671 17.9117
RightShoulder  3.75568 7.22644 29.0615
RightArm  -34.8711 -46.3655 51.7178
RightForeArm  77.4344 8.686 3.69831
RightHand  0.249064 5.73972 2.27074
LeftUpLeg  0.315078 0.469405 1.49227
LeftLeg  -0.702509 6.12255 -0.765053
LeftFoot  -0.188187 0.203916 -2.09733
LeftToes  4.76857e-008 1.46588e-008 1.31384e-009
